<?xml version="1.0" encoding="UTF-8" standalone="no"?>
<svg
   xmlns:dc="http://purl.org/dc/elements/1.1/"
   xmlns:cc="http://creativecommons.org/ns#"
   xmlns:rdf="http://www.w3.org/1999/02/22-rdf-syntax-ns#"
   xmlns:svg="http://www.w3.org/2000/svg"
   xmlns="http://www.w3.org/2000/svg"
   xmlns:sodipodi="http://sodipodi.sourceforge.net/DTD/sodipodi-0.dtd"
   xmlns:inkscape="http://www.inkscape.org/namespaces/inkscape"
   inkscape:version="1.0beta1 (fe3e306, 2019-09-17)"
   sodipodi:docname="Oef4Seq.svg"
   id="svg3118"
   version="1.1"
   image-rendering="auto"
   stroke-dashoffset="0"
   font-size="12px"
   stroke-linejoin="miter"
   font-style="normal"
   font-family="'Dialog'"
   height="599"
   stroke-width="1"
   font-weight="normal"
   stroke-dasharray="none"
   fill="rgb(0,0,0)"
   stroke-opacity="0"
   shape-rendering="auto"
   stroke-miterlimit="10"
   width="555"
   stroke-linecap="square"
   stroke="rgb(0,0,0)"
   text-rendering="auto"
   color-interpolation="auto"
   color-rendering="auto"
   fill-opacity="0">
  <metadata
     id="metadata3122">
    <rdf:RDF>
      <cc:Work
         rdf:about="">
        <dc:format>image/svg+xml</dc:format>
        <dc:type
           rdf:resource="http://purl.org/dc/dcmitype/StillImage" />
      </cc:Work>
    </rdf:RDF>
  </metadata>
  <sodipodi:namedview
     inkscape:current-layer="g3116"
     inkscape:window-maximized="1"
     inkscape:window-y="-9"
     inkscape:window-x="-9"
     inkscape:cy="41.570757"
     inkscape:cx="107.03878"
     inkscape:zoom="5.6"
     showgrid="false"
     id="namedview3120"
     inkscape:window-height="1001"
     inkscape:window-width="1920"
     inkscape:pageshadow="2"
     inkscape:pageopacity="0"
     guidetolerance="10"
     gridtolerance="10"
     objecttolerance="10"
     borderopacity="1"
     inkscape:document-rotation="0"
     bordercolor="#666666"
     pagecolor="#ffffff" />
  <!--Generated by the Batik Graphics2D SVG Generator-->
  <defs
     id="genericDefs" />
  <g
     id="g3116">
    <defs
       id="defs1">
      <clipPath
         id="clipPath1"
         clipPathUnits="userSpaceOnUse">
        <path
           id="path2739"
           d="M-7 -7 L19 -7 L19 23 L-7 23 L-7 -7 Z" />
      </clipPath>
      <clipPath
         id="clipPath2"
         clipPathUnits="userSpaceOnUse">
        <path
           id="path2742"
           d="M-7 -7 L87 -7 L87 566 L-7 566 L-7 -7 Z" />
      </clipPath>
      <clipPath
         id="clipPath3"
         clipPathUnits="userSpaceOnUse">
        <path
           id="path2745"
           d="M-7 -7 L26 -7 L26 31 L-7 31 L-7 -7 Z" />
      </clipPath>
      <clipPath
         id="clipPath4"
         clipPathUnits="userSpaceOnUse">
        <path
           id="path2748"
           d="M-7 -7 L19 -7 L19 461 L-7 461 L-7 -7 Z" />
      </clipPath>
      <clipPath
         id="clipPath5"
         clipPathUnits="userSpaceOnUse">
        <path
           id="path2751"
           d="M-7 -7 L156 -7 L156 467 L-7 467 L-7 -7 Z" />
      </clipPath>
      <clipPath
         id="clipPath6"
         clipPathUnits="userSpaceOnUse">
        <path
           id="path2754"
           d="M-7 -7 L19 -7 L19 172 L-7 172 L-7 -7 Z" />
      </clipPath>
      <clipPath
         id="clipPath7"
         clipPathUnits="userSpaceOnUse">
        <path
           id="path2757"
           d="M-7 -7 L91 -7 L91 323 L-7 323 L-7 -7 Z" />
      </clipPath>
      <clipPath
         id="clipPath8"
         clipPathUnits="userSpaceOnUse">
        <path
           id="path2760"
           d="M-7 -7 L19 -7 L19 101 L-7 101 L-7 -7 Z" />
      </clipPath>
      <clipPath
         id="clipPath9"
         clipPathUnits="userSpaceOnUse">
        <path
           id="path2763"
           d="M-7 -7 L19 -7 L19 84 L-7 84 L-7 -7 Z" />
      </clipPath>
      <clipPath
         id="clipPath10"
         clipPathUnits="userSpaceOnUse">
        <path
           id="path2766"
           d="M-76 -21 L152 -21 L152 42 L-76 42 L-76 -21 Z" />
      </clipPath>
      <clipPath
         id="clipPath11"
         clipPathUnits="userSpaceOnUse">
        <path
           id="path2769"
           d="M-145 -21 L290 -21 L290 42 L-145 42 L-145 -21 Z" />
      </clipPath>
      <clipPath
         id="clipPath12"
         clipPathUnits="userSpaceOnUse">
        <path
           id="path2772"
           d="M-80 -21 L160 -21 L160 42 L-80 42 L-80 -21 Z" />
      </clipPath>
      <clipPath
         id="clipPath13"
         clipPathUnits="userSpaceOnUse">
        <path
           id="path2775"
           d="M0 0 L170 0 L170 104 L0 104 L0 0 Z" />
      </clipPath>
      <clipPath
         id="clipPath14"
         clipPathUnits="userSpaceOnUse">
        <path
           id="path2778"
           d="M116 28 L116 47 L50 47 L50 28 ZM0 0 L0 104 L170 104 L170 0 Z" />
      </clipPath>
      <clipPath
         id="clipPath15"
         clipPathUnits="userSpaceOnUse">
        <path
           id="path2781"
           d="M0 0 L272 0 L272 104 L0 104 L0 0 Z" />
      </clipPath>
      <clipPath
         id="clipPath16"
         clipPathUnits="userSpaceOnUse">
        <path
           id="path2784"
           d="M165 26 L165 45 L103 45 L103 26 ZM42 0 L42 16 L0 16 L0 104 L115 104 L115 90 L220 90 L220 104 L272 104 L272 54 L218 54 L218 33 L272 33 L272 0 Z" />
      </clipPath>
      <clipPath
         id="clipPath17"
         clipPathUnits="userSpaceOnUse">
        <path
           id="path2787"
           d="M0 0 L340 0 L340 104 L0 104 L0 0 Z" />
      </clipPath>
      <clipPath
         id="clipPath18"
         clipPathUnits="userSpaceOnUse">
        <path
           id="path2790"
           d="M220 26 L220 45 L115 45 L115 26 ZM0 0 L0 104 L340 104 L340 76 L327 76 L327 57 L340 57 L340 0 Z" />
      </clipPath>
      <clipPath
         id="clipPath19"
         clipPathUnits="userSpaceOnUse">
        <path
           id="path2793"
           d="M0 0 L134 0 L134 124 L0 124 L0 0 Z" />
      </clipPath>
      <clipPath
         id="clipPath20"
         clipPathUnits="userSpaceOnUse">
        <path
           id="path2796"
           d="M0 0 L0 124 L134 124 L134 117 L82 117 L82 98 L134 98 L134 68 L83 68 L83 49 L134 49 L134 0 Z" />
      </clipPath>
      <clipPath
         id="clipPath21"
         clipPathUnits="userSpaceOnUse">
        <path
           id="path2799"
           d="M0 0 L230 0 L230 104 L0 104 L0 0 Z" />
      </clipPath>
      <clipPath
         id="clipPath22"
         clipPathUnits="userSpaceOnUse">
        <path
           id="path2802"
           d="M144 26 L144 45 L82 45 L82 26 ZM183 79 L183 98 L78 98 L78 79 ZM0 0 L0 104 L230 104 L230 54 L176 54 L176 33 L230 33 L230 0 Z" />
      </clipPath>
      <clipPath
         id="clipPath23"
         clipPathUnits="userSpaceOnUse">
        <path
           id="path2805"
           d="M0 0 L266 0 L266 104 L0 104 L0 0 Z" />
      </clipPath>
      <clipPath
         id="clipPath24"
         clipPathUnits="userSpaceOnUse">
        <path
           id="path2808"
           d="M183 26 L183 45 L78 45 L78 26 ZM0 0 L0 104 L83 104 L83 100 L146 100 L146 104 L266 104 L266 0 L256 0 L256 1 L176 1 L176 0 Z" />
      </clipPath>
      <clipPath
         id="clipPath25"
         clipPathUnits="userSpaceOnUse">
        <path
           id="path2811"
           d="M220 26 L220 45 L115 45 L115 26 ZM0 0 L0 104 L340 104 L340 80 L327 80 L327 61 L340 61 L340 6 L322 6 L322 0 Z" />
      </clipPath>
      <clipPath
         id="clipPath26"
         clipPathUnits="userSpaceOnUse">
        <path
           id="path2814"
           d="M0 0 L0 124 L134 124 L134 114 L77 114 L77 95 L134 95 L134 69 L83 69 L83 50 L134 50 L134 0 Z" />
      </clipPath>
      <clipPath
         id="clipPath27"
         clipPathUnits="userSpaceOnUse">
        <path
           id="path2817"
           d="M182 26 L182 45 L77 45 L77 26 ZM156 76 L156 95 L85 95 L85 76 ZM0 0 L0 104 L63 104 L63 103 L199 103 L199 104 L266 104 L266 0 Z" />
      </clipPath>
      <clipPath
         id="clipPath28"
         clipPathUnits="userSpaceOnUse">
        <path
           id="path2820"
           d="M236 26 L236 45 L100 45 L100 26 ZM0 0 L0 104 L307 104 L307 85 L340 85 L340 77 L329 77 L329 58 L340 58 L340 27 L321 27 L321 8 L340 8 L340 0 Z" />
      </clipPath>
      <clipPath
         id="clipPath29"
         clipPathUnits="userSpaceOnUse">
        <path
           id="path2823"
           d="M0 0 L0 124 L134 124 L134 97 L63 97 L63 78 L134 78 L134 70 L85 70 L85 51 L134 51 L134 20 L77 20 L77 1 L134 1 L134 0 Z" />
      </clipPath>
      <clipPath
         id="clipPath30"
         clipPathUnits="userSpaceOnUse">
        <path
           id="path2826"
           d="M199 26 L199 45 L63 45 L63 26 ZM0 0 L0 104 L266 104 L266 0 L156 0 L156 18 L85 18 L85 0 Z" />
      </clipPath>
      <clipPath
         id="clipPath31"
         clipPathUnits="userSpaceOnUse">
        <path
           id="path2829"
           d="M-136 -19 L272 -19 L272 38 L-136 38 L-136 -19 Z" />
      </clipPath>
      <clipPath
         id="clipPath32"
         clipPathUnits="userSpaceOnUse">
        <path
           id="path2832"
           d="M-71 -19 L142 -19 L142 38 L-71 38 L-71 -19 Z" />
      </clipPath>
      <clipPath
         id="clipPath33"
         clipPathUnits="userSpaceOnUse">
        <path
           id="path2835"
           d="M-105 -19 L210 -19 L210 38 L-105 38 L-105 -19 Z" />
      </clipPath>
      <clipPath
         id="clipPath34"
         clipPathUnits="userSpaceOnUse">
        <path
           id="path2838"
           d="M-63 -19 L126 -19 L126 38 L-63 38 L-63 -19 Z" />
      </clipPath>
      <clipPath
         id="clipPath35"
         clipPathUnits="userSpaceOnUse">
        <path
           id="path2841"
           d="M-62 -19 L124 -19 L124 38 L-62 38 L-62 -19 Z" />
      </clipPath>
      <clipPath
         id="clipPath36"
         clipPathUnits="userSpaceOnUse">
        <path
           id="path2844"
           d="M-66 -19 L132 -19 L132 38 L-66 38 L-66 -19 Z" />
      </clipPath>
    </defs>
    <g
       id="g2850"
       stroke="white"
       stroke-opacity="1"
       fill-opacity="1"
       text-rendering="geometricPrecision"
       fill="white">
      <rect
         id="rect2848"
         stroke="none"
         y="0"
         height="599"
         width="555"
         x="0" />
    </g>
    <g
       id="g2866"
       stroke-miterlimit="0"
       stroke-opacity="1"
       stroke="black"
       stroke-linejoin="round"
       font-family="sans-serif"
       image-rendering="optimizeQuality"
       text-rendering="geometricPrecision"
       fill="black"
       fill-opacity="1"
       font-size="16px"
       stroke-linecap="butt" />
    <g
       id="g2872"
       stroke-miterlimit="0"
       stroke-opacity="1"
       stroke="black"
       stroke-linejoin="round"
       font-family="sans-serif"
       image-rendering="optimizeQuality"
       text-rendering="geometricPrecision"
       fill="black"
       fill-opacity="1"
       transform="translate(59,40)"
       font-size="16px"
       stroke-linecap="butt">
      <rect
         id="rect2868"
         clip-path="url(#clipPath2)"
         y="0"
         height="35"
         width="75"
         x="0"
         fill="none" />
      <line
         id="line2870"
         stroke-dasharray="8,3"
         stroke-linejoin="bevel"
         y2="555"
         y1="35"
         x2="37"
         x1="37"
         fill="none"
         clip-path="url(#clipPath2)" />
    </g>
    <g
       id="g2876"
       stroke-opacity="1"
       stroke="black"
       font-family="sans-serif"
       image-rendering="optimizeQuality"
       text-rendering="geometricPrecision"
       fill="black"
       fill-opacity="1"
       transform="translate(13,115)"
       font-size="16px">
      <circle
         id="circle2874"
         stroke="none"
         cy="9"
         cx="7"
         clip-path="url(#clipPath3)"
         r="7" />
    </g>
    <g
       id="g2880"
       stroke-miterlimit="0"
       stroke-opacity="1"
       stroke="black"
       stroke-linejoin="round"
       font-family="sans-serif"
       image-rendering="optimizeQuality"
       text-rendering="geometricPrecision"
       fill="black"
       fill-opacity="1"
       transform="translate(93,125)"
       font-size="16px"
       stroke-linecap="butt">
      <rect
         id="rect2878"
         clip-path="url(#clipPath4)"
         y="0"
         height="450"
         width="8"
         x="0"
         fill="none" />
    </g>
    <g
       id="g2886"
       stroke-miterlimit="0"
       stroke-opacity="1"
       stroke="black"
       stroke-linejoin="round"
       font-family="sans-serif"
       image-rendering="optimizeQuality"
       text-rendering="geometricPrecision"
       fill="black"
       fill-opacity="1"
       transform="translate(269,139)"
       font-size="16px"
       stroke-linecap="butt">
      <rect
         id="rect2882"
         clip-path="url(#clipPath5)"
         y="0"
         height="35"
         width="144"
         x="0"
         fill="none" />
      <line
         id="line2884"
         stroke-dasharray="8,3"
         stroke-linejoin="bevel"
         y2="456"
         y1="35"
         x2="72"
         x1="72"
         fill="none"
         clip-path="url(#clipPath5)" />
    </g>
    <g
       id="g2890"
       stroke-miterlimit="0"
       stroke-opacity="1"
       stroke="black"
       stroke-linejoin="round"
       font-family="sans-serif"
       image-rendering="optimizeQuality"
       text-rendering="geometricPrecision"
       fill="black"
       fill-opacity="1"
       transform="translate(337,213)"
       font-size="16px"
       stroke-linecap="butt">
      <rect
         id="rect2888"
         clip-path="url(#clipPath6)"
         y="0"
         height="161"
         width="8"
         x="0"
         fill="none" />
    </g>
    <g
       id="g2896"
       stroke-miterlimit="0"
       stroke-opacity="1"
       stroke="black"
       stroke-linejoin="round"
       font-family="sans-serif"
       image-rendering="optimizeQuality"
       text-rendering="geometricPrecision"
       fill="black"
       fill-opacity="1"
       transform="translate(471,283)"
       font-size="16px"
       stroke-linecap="butt">
      <rect
         id="rect2892"
         clip-path="url(#clipPath7)"
         y="0"
         height="35"
         width="79"
         x="0"
         fill="none" />
      <line
         id="line2894"
         stroke-dasharray="8,3"
         stroke-linejoin="bevel"
         y2="312"
         y1="35"
         x2="39"
         x1="39"
         fill="none"
         clip-path="url(#clipPath7)" />
    </g>
    <g
       id="g2900"
       stroke-miterlimit="0"
       stroke-opacity="1"
       stroke="black"
       stroke-linejoin="round"
       font-family="sans-serif"
       image-rendering="optimizeQuality"
       text-rendering="geometricPrecision"
       fill="black"
       fill-opacity="1"
       transform="translate(507,353)"
       font-size="16px"
       stroke-linecap="butt">
      <rect
         id="rect2898"
         clip-path="url(#clipPath1)"
         y="0"
         height="12"
         width="8"
         x="0"
         fill="none" />
    </g>
    <g
       id="g2904"
       stroke-miterlimit="0"
       stroke-opacity="1"
       stroke="black"
       stroke-linejoin="round"
       font-family="sans-serif"
       image-rendering="optimizeQuality"
       text-rendering="geometricPrecision"
       fill="black"
       fill-opacity="1"
       transform="translate(507,472)"
       font-size="16px"
       stroke-linecap="butt">
      <rect
         id="rect2902"
         clip-path="url(#clipPath1)"
         y="0"
         height="12"
         width="8"
         x="0"
         fill="none" />
    </g>
    <g
       id="g2908"
       stroke-miterlimit="0"
       stroke-opacity="1"
       stroke="black"
       stroke-linejoin="round"
       font-family="sans-serif"
       image-rendering="optimizeQuality"
       text-rendering="geometricPrecision"
       fill="black"
       fill-opacity="1"
       transform="translate(507,549)"
       font-size="16px"
       stroke-linecap="butt">
      <rect
         id="rect2906"
         clip-path="url(#clipPath1)"
         y="0"
         height="12"
         width="8"
         x="0"
         fill="none" />
    </g>
    <g
       id="g2912"
       stroke-miterlimit="0"
       stroke-opacity="1"
       stroke="black"
       stroke-linejoin="round"
       font-family="sans-serif"
       image-rendering="optimizeQuality"
       text-rendering="geometricPrecision"
       fill="black"
       fill-opacity="1"
       transform="translate(337,392)"
       font-size="16px"
       stroke-linecap="butt">
      <rect
         id="rect2910"
         clip-path="url(#clipPath8)"
         y="0"
         height="90"
         width="8"
         x="0"
         fill="none" />
    </g>
    <g
       id="g2916"
       stroke-miterlimit="0"
       stroke-opacity="1"
       stroke="black"
       stroke-linejoin="round"
       font-family="sans-serif"
       image-rendering="optimizeQuality"
       text-rendering="geometricPrecision"
       fill="black"
       fill-opacity="1"
       transform="translate(337,490)"
       font-size="16px"
       stroke-linecap="butt">
      <rect
         id="rect2914"
         clip-path="url(#clipPath9)"
         y="0"
         height="73"
         width="8"
         x="0"
         fill="none" />
    </g>
    <g
       id="g2920"
       stroke-opacity="1"
       stroke="black"
       font-family="sans-serif"
       image-rendering="optimizeQuality"
       text-rendering="geometricPrecision"
       fill="black"
       fill-opacity="1"
       transform="translate(59,40)"
       font-size="16px">
      <text
         id="text2918"
         stroke="none"
         clip-path="url(#clipPath10)"
         y="17"
         xml:space="preserve"
         x="12">: Driver</text>
    </g>
    <g
       id="g2924"
       stroke-opacity="1"
       stroke="black"
       font-family="sans-serif"
       image-rendering="optimizeQuality"
       text-rendering="geometricPrecision"
       fill="black"
       fill-opacity="1"
       transform="translate(269,139)"
       font-size="16px">
      <text
         id="text2922"
         stroke="none"
         clip-path="url(#clipPath11)"
         y="17"
         xml:space="preserve"
         x="12">: StringContainer</text>
    </g>
    <g
       id="g2928"
       stroke-opacity="1"
       stroke="black"
       font-family="sans-serif"
       image-rendering="optimizeQuality"
       text-rendering="geometricPrecision"
       fill="black"
       fill-opacity="1"
       transform="translate(471,283)"
       font-size="16px">
      <text
         id="text2926"
         stroke="none"
         clip-path="url(#clipPath12)"
         y="17"
         xml:space="preserve"
         x="12">: Vector</text>
    </g>
    <g
       id="g2936"
       stroke-opacity="1"
       stroke="black"
       stroke-linejoin="round"
       font-family="sans-serif"
       image-rendering="optimizeQuality"
       text-rendering="geometricPrecision"
       fill="black"
       fill-opacity="1"
       transform="translate(-23,75)"
       font-size="14px"
       stroke-linecap="butt">
      <line
         id="line2930"
         y1="50"
         x2="116"
         clip-path="url(#clipPath14)"
         x1="50"
         fill="none"
         y2="50" />
      <polygon
         id="polygon2932"
         stroke="none"
         clip-path="url(#clipPath14)"
         points=" 116 50 104 44 104 56" />
      <polygon
         id="polygon2934"
         clip-path="url(#clipPath14)"
         points=" 116 50 104 44 104 56"
         fill="none" />
    </g>
    <g
       id="g2944"
       image-rendering="optimizeQuality"
       stroke-dashoffset="1"
       font-size="14px"
       stroke-linejoin="round"
       font-family="sans-serif"
       stroke-dasharray="5"
       fill="black"
       stroke-opacity="1"
       transform="translate(51,106)"
       stroke-linecap="butt"
       stroke="black"
       text-rendering="geometricPrecision"
       fill-opacity="1">
      <line
         id="line2938"
         y1="50"
         x2="218"
         clip-path="url(#clipPath16)"
         x1="50"
         fill="none"
         y2="50" />
      <line
         id="line2940"
         stroke-dasharray="none"
         y2="44"
         y1="50"
         x2="206"
         x1="218"
         fill="none"
         stroke-dashoffset="0"
         clip-path="url(#clipPath16)" />
      <line
         id="line2942"
         stroke-dasharray="none"
         y2="56"
         y1="50"
         x2="206"
         x1="218"
         fill="none"
         stroke-dashoffset="0"
         clip-path="url(#clipPath16)" />
    </g>
    <g
       id="g2952"
       stroke-opacity="1"
       stroke="black"
       stroke-linejoin="round"
       font-family="sans-serif"
       image-rendering="optimizeQuality"
       text-rendering="geometricPrecision"
       fill="black"
       fill-opacity="1"
       transform="translate(51,170)"
       font-size="14px"
       stroke-linecap="butt">
      <line
         id="line2946"
         y1="50"
         x2="286"
         clip-path="url(#clipPath18)"
         x1="50"
         fill="none"
         y2="50" />
      <polygon
         id="polygon2948"
         stroke="none"
         clip-path="url(#clipPath18)"
         points=" 286 50 274 44 274 56" />
      <polygon
         id="polygon2950"
         clip-path="url(#clipPath18)"
         points=" 286 50 274 44 274 56"
         fill="none" />
    </g>
    <g
       id="g2964"
       stroke-opacity="1"
       stroke="black"
       stroke-linejoin="round"
       font-family="sans-serif"
       image-rendering="optimizeQuality"
       text-rendering="geometricPrecision"
       fill="black"
       fill-opacity="1"
       transform="translate(295,178)"
       font-size="14px"
       stroke-linecap="butt">
      <line
         id="line2954"
         y1="50"
         x2="80"
         clip-path="url(#clipPath20)"
         x1="50"
         fill="none"
         y2="50" />
      <line
         id="line2956"
         y1="50"
         x2="80"
         clip-path="url(#clipPath20)"
         x1="80"
         fill="none"
         y2="70" />
      <line
         id="line2958"
         y1="70"
         x2="50"
         clip-path="url(#clipPath20)"
         x1="80"
         fill="none"
         y2="70" />
      <polygon
         id="polygon2960"
         stroke="none"
         clip-path="url(#clipPath20)"
         points=" 50 70 62 76 62 64" />
      <polygon
         id="polygon2962"
         clip-path="url(#clipPath20)"
         points=" 50 70 62 76 62 64"
         fill="none" />
    </g>
    <g
       id="g2972"
       image-rendering="optimizeQuality"
       stroke-dashoffset="1"
       font-size="14px"
       stroke-linejoin="round"
       font-family="sans-serif"
       stroke-dasharray="5"
       fill="black"
       stroke-opacity="1"
       transform="translate(295,250)"
       stroke-linecap="butt"
       stroke="black"
       text-rendering="geometricPrecision"
       fill-opacity="1">
      <line
         id="line2966"
         y1="50"
         x2="176"
         clip-path="url(#clipPath22)"
         x1="50"
         fill="none"
         y2="50" />
      <line
         id="line2968"
         stroke-dasharray="none"
         y2="44"
         y1="50"
         x2="164"
         x1="176"
         fill="none"
         stroke-dashoffset="0"
         clip-path="url(#clipPath22)" />
      <line
         id="line2970"
         stroke-dasharray="none"
         y2="56"
         y1="50"
         x2="164"
         x1="176"
         fill="none"
         stroke-dashoffset="0"
         clip-path="url(#clipPath22)" />
    </g>
    <g
       id="g2980"
       stroke-opacity="1"
       stroke="black"
       stroke-linejoin="round"
       font-family="sans-serif"
       image-rendering="optimizeQuality"
       text-rendering="geometricPrecision"
       fill="black"
       fill-opacity="1"
       transform="translate(295,303)"
       font-size="14px"
       stroke-linecap="butt">
      <line
         id="line2974"
         y1="50"
         x2="212"
         clip-path="url(#clipPath24)"
         x1="50"
         fill="none"
         y2="50" />
      <polygon
         id="polygon2976"
         stroke="none"
         clip-path="url(#clipPath24)"
         points=" 212 50 200 44 200 56" />
      <polygon
         id="polygon2978"
         clip-path="url(#clipPath24)"
         points=" 212 50 200 44 200 56"
         fill="none" />
    </g>
    <g
       id="g2988"
       stroke-opacity="1"
       stroke="black"
       stroke-linejoin="round"
       font-family="sans-serif"
       image-rendering="optimizeQuality"
       text-rendering="geometricPrecision"
       fill="black"
       fill-opacity="1"
       transform="translate(51,342)"
       font-size="14px"
       stroke-linecap="butt">
      <line
         id="line2982"
         y1="50"
         x2="286"
         clip-path="url(#clipPath25)"
         x1="50"
         fill="none"
         y2="50" />
      <polygon
         id="polygon2984"
         stroke="none"
         clip-path="url(#clipPath25)"
         points=" 286 50 274 44 274 56" />
      <polygon
         id="polygon2986"
         clip-path="url(#clipPath25)"
         points=" 286 50 274 44 274 56"
         fill="none" />
    </g>
    <g
       id="g3000"
       stroke-opacity="1"
       stroke="black"
       stroke-linejoin="round"
       font-family="sans-serif"
       image-rendering="optimizeQuality"
       text-rendering="geometricPrecision"
       fill="black"
       fill-opacity="1"
       transform="translate(295,353)"
       font-size="14px"
       stroke-linecap="butt">
      <line
         id="line2990"
         y1="50"
         x2="80"
         clip-path="url(#clipPath26)"
         x1="50"
         fill="none"
         y2="50" />
      <line
         id="line2992"
         y1="50"
         x2="80"
         clip-path="url(#clipPath26)"
         x1="80"
         fill="none"
         y2="70" />
      <line
         id="line2994"
         y1="70"
         x2="50"
         clip-path="url(#clipPath26)"
         x1="80"
         fill="none"
         y2="70" />
      <polygon
         id="polygon2996"
         stroke="none"
         clip-path="url(#clipPath26)"
         points=" 50 70 62 76 62 64" />
      <polygon
         id="polygon2998"
         clip-path="url(#clipPath26)"
         points=" 50 70 62 76 62 64"
         fill="none" />
    </g>
    <g
       id="g3008"
       stroke-opacity="1"
       stroke="black"
       stroke-linejoin="round"
       font-family="sans-serif"
       image-rendering="optimizeQuality"
       text-rendering="geometricPrecision"
       fill="black"
       fill-opacity="1"
       transform="translate(295,422)"
       font-size="14px"
       stroke-linecap="butt">
      <line
         id="line3002"
         y1="50"
         x2="212"
         clip-path="url(#clipPath27)"
         x1="50"
         fill="none"
         y2="50" />
      <polygon
         id="polygon3004"
         stroke="none"
         clip-path="url(#clipPath27)"
         points=" 212 50 200 44 200 56" />
      <polygon
         id="polygon3006"
         clip-path="url(#clipPath27)"
         points=" 212 50 200 44 200 56"
         fill="none" />
    </g>
    <g
       id="g3016"
       stroke-opacity="1"
       stroke="black"
       stroke-linejoin="round"
       font-family="sans-serif"
       image-rendering="optimizeQuality"
       text-rendering="geometricPrecision"
       fill="black"
       fill-opacity="1"
       transform="translate(51,440)"
       font-size="14px"
       stroke-linecap="butt">
      <line
         id="line3010"
         y1="50"
         x2="286"
         clip-path="url(#clipPath28)"
         x1="50"
         fill="none"
         y2="50" />
      <polygon
         id="polygon3012"
         stroke="none"
         clip-path="url(#clipPath28)"
         points=" 286 50 274 44 274 56" />
      <polygon
         id="polygon3014"
         clip-path="url(#clipPath28)"
         points=" 286 50 274 44 274 56"
         fill="none" />
    </g>
    <g
       id="g3028"
       stroke-opacity="1"
       stroke="black"
       stroke-linejoin="round"
       font-family="sans-serif"
       image-rendering="optimizeQuality"
       text-rendering="geometricPrecision"
       fill="black"
       fill-opacity="1"
       transform="translate(295,447)"
       font-size="14px"
       stroke-linecap="butt">
      <line
         id="line3018"
         y1="50"
         x2="80"
         clip-path="url(#clipPath29)"
         x1="50"
         fill="none"
         y2="50" />
      <line
         id="line3020"
         y1="50"
         x2="80"
         clip-path="url(#clipPath29)"
         x1="80"
         fill="none"
         y2="70" />
      <line
         id="line3022"
         y1="70"
         x2="50"
         clip-path="url(#clipPath29)"
         x1="80"
         fill="none"
         y2="70" />
      <polygon
         id="polygon3024"
         stroke="none"
         clip-path="url(#clipPath29)"
         points=" 50 70 62 76 62 64" />
      <polygon
         id="polygon3026"
         clip-path="url(#clipPath29)"
         points=" 50 70 62 76 62 64"
         fill="none" />
    </g>
    <g
       id="g3036"
       stroke-opacity="1"
       stroke="black"
       stroke-linejoin="round"
       font-family="sans-serif"
       image-rendering="optimizeQuality"
       text-rendering="geometricPrecision"
       fill="black"
       fill-opacity="1"
       transform="translate(295,499)"
       font-size="14px"
       stroke-linecap="butt">
      <line
         id="line3030"
         y1="50"
         x2="212"
         clip-path="url(#clipPath30)"
         x1="50"
         fill="none"
         y2="50" />
      <polygon
         id="polygon3032"
         stroke="none"
         clip-path="url(#clipPath30)"
         points=" 212 50 200 44 200 56" />
      <polygon
         id="polygon3034"
         clip-path="url(#clipPath30)"
         points=" 212 50 200 44 200 56"
         fill="none" />
    </g>
    <g
       id="g3042"
       stroke-opacity="1"
       stroke="white"
       font-family="sans-serif"
       image-rendering="optimizeQuality"
       text-rendering="geometricPrecision"
       fill="white"
       fill-opacity="1"
       transform="translate(358,525)"
       font-size="14px">
      <rect
         id="rect3038"
         stroke="none"
         clip-path="url(#clipPath31)"
         y="0"
         height="19"
         width="136"
         x="0" />
      <text
         id="text3040"
         stroke="none"
         clip-path="url(#clipPath31)"
         y="15"
         xml:space="preserve"
         x="10"
         fill="black">12: remove(&quot;One&quot;)</text>
    </g>
    <g
       id="g3048"
       stroke-opacity="1"
       stroke="white"
       font-family="sans-serif"
       image-rendering="optimizeQuality"
       text-rendering="geometricPrecision"
       fill="white"
       fill-opacity="1"
       transform="translate(380,498)"
       font-size="14px">
      <rect
         id="rect3044"
         stroke="none"
         clip-path="url(#clipPath32)"
         y="0"
         height="19"
         width="71"
         x="0" />
      <text
         id="text3046"
         stroke="none"
         clip-path="url(#clipPath32)"
         y="15"
         xml:space="preserve"
         x="10"
         fill="black">11: init()</text>
    </g>
    <g
       id="g3054"
       stroke-opacity="1"
       stroke="white"
       font-family="sans-serif"
       image-rendering="optimizeQuality"
       text-rendering="geometricPrecision"
       fill="white"
       fill-opacity="1"
       transform="translate(151,466)"
       font-size="14px">
      <rect
         id="rect3050"
         stroke="none"
         clip-path="url(#clipPath31)"
         y="0"
         height="19"
         width="136"
         x="0" />
      <text
         id="text3052"
         stroke="none"
         clip-path="url(#clipPath31)"
         y="15"
         xml:space="preserve"
         x="10"
         fill="black">10: remove(&quot;One&quot;)</text>
    </g>
    <g
       id="g3060"
       stroke-opacity="1"
       stroke="white"
       font-family="sans-serif"
       image-rendering="optimizeQuality"
       text-rendering="geometricPrecision"
       fill="white"
       fill-opacity="1"
       transform="translate(372,448)"
       font-size="14px">
      <rect
         id="rect3056"
         stroke="none"
         clip-path="url(#clipPath33)"
         y="0"
         height="19"
         width="105"
         x="0" />
      <text
         id="text3058"
         stroke="none"
         clip-path="url(#clipPath33)"
         y="15"
         xml:space="preserve"
         x="10"
         fill="black">9: add(&quot;Two&quot;)</text>
    </g>
    <g
       id="g3066"
       stroke-opacity="1"
       stroke="white"
       font-family="sans-serif"
       image-rendering="optimizeQuality"
       text-rendering="geometricPrecision"
       fill="white"
       fill-opacity="1"
       transform="translate(378,403)"
       font-size="14px">
      <rect
         id="rect3062"
         stroke="none"
         clip-path="url(#clipPath34)"
         y="0"
         height="19"
         width="63"
         x="0" />
      <text
         id="text3064"
         stroke="none"
         clip-path="url(#clipPath34)"
         y="15"
         xml:space="preserve"
         x="10"
         fill="black">8: init()</text>
    </g>
    <g
       id="g3072"
       stroke-opacity="1"
       stroke="white"
       font-family="sans-serif"
       image-rendering="optimizeQuality"
       text-rendering="geometricPrecision"
       fill="white"
       fill-opacity="1"
       transform="translate(166,368)"
       font-size="14px">
      <rect
         id="rect3068"
         stroke="none"
         clip-path="url(#clipPath33)"
         y="0"
         height="19"
         width="105"
         x="0" />
      <text
         id="text3070"
         stroke="none"
         clip-path="url(#clipPath33)"
         y="15"
         xml:space="preserve"
         x="10"
         fill="black">7: add(&quot;Two&quot;)</text>
    </g>
    <g
       id="g3078"
       stroke-opacity="1"
       stroke="white"
       font-family="sans-serif"
       image-rendering="optimizeQuality"
       text-rendering="geometricPrecision"
       fill="white"
       fill-opacity="1"
       transform="translate(373,329)"
       font-size="14px">
      <rect
         id="rect3074"
         stroke="none"
         clip-path="url(#clipPath33)"
         y="0"
         height="19"
         width="105"
         x="0" />
      <text
         id="text3076"
         stroke="none"
         clip-path="url(#clipPath33)"
         y="15"
         xml:space="preserve"
         x="10"
         fill="black">6: add(&quot;One&quot;)</text>
    </g>
    <g
       id="g3084"
       stroke-opacity="1"
       stroke="white"
       font-family="sans-serif"
       image-rendering="optimizeQuality"
       text-rendering="geometricPrecision"
       fill="white"
       fill-opacity="1"
       transform="translate(377,276)"
       font-size="14px">
      <rect
         id="rect3080"
         stroke="none"
         clip-path="url(#clipPath35)"
         y="0"
         height="19"
         width="62"
         x="0" />
      <text
         id="text3082"
         stroke="none"
         clip-path="url(#clipPath35)"
         y="15"
         xml:space="preserve"
         x="9"
         fill="black">5: new</text>
    </g>
    <g
       id="g3090"
       stroke-opacity="1"
       stroke="white"
       font-family="sans-serif"
       image-rendering="optimizeQuality"
       text-rendering="geometricPrecision"
       fill="white"
       fill-opacity="1"
       transform="translate(378,227)"
       font-size="14px">
      <rect
         id="rect3086"
         stroke="none"
         clip-path="url(#clipPath34)"
         y="0"
         height="19"
         width="63"
         x="0" />
      <text
         id="text3088"
         stroke="none"
         clip-path="url(#clipPath34)"
         y="15"
         xml:space="preserve"
         x="10"
         fill="black">4: init()</text>
    </g>
    <g
       id="g3096"
       stroke-opacity="1"
       stroke="white"
       font-family="sans-serif"
       image-rendering="optimizeQuality"
       text-rendering="geometricPrecision"
       fill="white"
       fill-opacity="1"
       transform="translate(166,196)"
       font-size="14px">
      <rect
         id="rect3092"
         stroke="none"
         clip-path="url(#clipPath33)"
         y="0"
         height="19"
         width="105"
         x="0" />
      <text
         id="text3094"
         stroke="none"
         clip-path="url(#clipPath33)"
         y="15"
         xml:space="preserve"
         x="10"
         fill="black">3: add(&quot;One&quot;)</text>
    </g>
    <g
       id="g3102"
       stroke-opacity="1"
       stroke="white"
       font-family="sans-serif"
       image-rendering="optimizeQuality"
       text-rendering="geometricPrecision"
       fill="white"
       fill-opacity="1"
       transform="translate(154,132)"
       font-size="14px">
      <rect
         id="rect3098"
         stroke="none"
         clip-path="url(#clipPath35)"
         y="0"
         height="19"
         width="62"
         x="0" />
      <text
         id="text3100"
         stroke="none"
         clip-path="url(#clipPath35)"
         y="15"
         xml:space="preserve"
         x="9"
         fill="black">2: new</text>
    </g>
    <g
       id="g3108"
       stroke-opacity="1"
       stroke="white"
       font-family="sans-serif"
       image-rendering="optimizeQuality"
       text-rendering="geometricPrecision"
       fill="white"
       fill-opacity="1"
       transform="translate(27,103)"
       font-size="14px">
      <rect
         id="rect3104"
         stroke="none"
         clip-path="url(#clipPath36)"
         y="0"
         height="19"
         width="66"
         x="0" />
      <text
         id="text3106"
         stroke="none"
         clip-path="url(#clipPath36)"
         y="15"
         xml:space="preserve"
         x="9"
         fill="black">1: run()</text>
    </g>
  </g>
</svg>
