<?xml version="1.0" encoding="UTF-8" standalone="no"?>
<!-- Generator: Adobe Illustrator 19.1.1, SVG Export Plug-In . SVG Version: 6.00 Build 0)  -->

<svg
   xmlns:dc="http://purl.org/dc/elements/1.1/"
   xmlns:cc="http://creativecommons.org/ns#"
   xmlns:rdf="http://www.w3.org/1999/02/22-rdf-syntax-ns#"
   xmlns:svg="http://www.w3.org/2000/svg"
   xmlns="http://www.w3.org/2000/svg"
   xmlns:sodipodi="http://sodipodi.sourceforge.net/DTD/sodipodi-0.dtd"
   xmlns:inkscape="http://www.inkscape.org/namespaces/inkscape"
   version="1.1"
   id="Layer_1"
   x="0px"
   y="0px"
   viewBox="0 0 44.55 44.550001"
   xml:space="preserve"
   sodipodi:docname="discord.svg"
   width="55"
   height="55"
   inkscape:version="0.92.4 (5da689c313, 2019-01-14)"><metadata
   id="metadata831"><rdf:RDF><cc:Work
       rdf:about=""><dc:format>image/svg+xml</dc:format><dc:type
         rdf:resource="http://purl.org/dc/dcmitype/StillImage" /><dc:title></dc:title></cc:Work></rdf:RDF></metadata><defs
   id="defs829" /><sodipodi:namedview
   pagecolor="#ffffff"
   bordercolor="#666666"
   borderopacity="1"
   objecttolerance="10"
   gridtolerance="10"
   guidetolerance="10"
   inkscape:pageopacity="0"
   inkscape:pageshadow="2"
   inkscape:window-width="3840"
   inkscape:window-height="2066"
   id="namedview827"
   showgrid="false"
   scale-x="0.91"
   fit-margin-top="0"
   fit-margin-left="0"
   fit-margin-right="0"
   fit-margin-bottom="0"
   inkscape:zoom="19.197917"
   inkscape:cx="23.378294"
   inkscape:cy="14.3306"
   inkscape:window-x="2293"
   inkscape:window-y="-11"
   inkscape:window-maximized="1"
   inkscape:current-layer="Layer_1" />
<path
   style="fill:#8c9eff;stroke-width:1.00623071"
   d="m 38.475003,10.070004 c 0,0 -4.642315,-3.5879986 -10.124999,-3.9999986 l -0.494104,0.976 c 4.957205,1.198 7.231276,2.914999 9.606603,5.0239986 -4.09556,-2.065 -8.139488,-3.9999986 -15.187503,-3.9999986 -7.048009,0 -11.091936,1.9349986 -15.1874997,3.9999986 C 9.4628255,9.9610044 12.168225,8.0550054 16.694101,7.0460054 l -0.494098,-0.976 c -5.752017,0.537 -10.1250027,3.9999986 -10.1250027,3.9999986 0,0 -5.18501274,7.424996 -6.0750003,21.999996 5.2265252,5.953 13.162501,6 13.162501,6 l 1.659486,-2.185 C 12.005215,34.918 8.8239381,33.191 6.0750003,30.07 c 3.2784753,2.45 8.2265637,5 16.1999997,5 7.973437,0 12.921527,-2.55 16.200003,-5 -2.748937,3.121 -5.930211,4.848 -8.74699,5.815 l 1.659492,2.185 c 0,0 7.935975,-0.047 13.162495,-6 C 43.660014,17.495 38.475003,10.070004 38.475003,10.070004 Z M 15.69375,28.07 c -1.95716,0 -3.543749,-1.791 -3.543749,-4 0,-2.209 1.586589,-4 3.543749,-4 1.957165,0 3.543749,1.791 3.543749,4 0,2.209 -1.586584,4 -3.543749,4 z m 13.162501,0 c -1.95716,0 -3.543749,-1.791 -3.543749,-4 0,-2.209 1.586589,-4 3.543749,-4 1.957166,0 3.543749,1.791 3.543749,4 0,2.209 -1.586583,4 -3.543749,4 z"
   id="path824"
   inkscape:connector-curvature="0" />
</svg>