<?xml version="1.0" encoding="UTF-8" standalone="no"?>
<!-- Generator: Adobe Illustrator 19.0.0, SVG Export Plug-In . SVG Version: 6.00 Build 0)  -->

<svg
   xmlns:dc="http://purl.org/dc/elements/1.1/"
   xmlns:cc="http://creativecommons.org/ns#"
   xmlns:rdf="http://www.w3.org/1999/02/22-rdf-syntax-ns#"
   xmlns:svg="http://www.w3.org/2000/svg"
   xmlns="http://www.w3.org/2000/svg"
   xmlns:sodipodi="http://sodipodi.sourceforge.net/DTD/sodipodi-0.dtd"
   xmlns:inkscape="http://www.inkscape.org/namespaces/inkscape"
   version="1.1"
   id="Layer_1"
   x="0px"
   y="0px"
   viewBox="0 0 55 55"
   xml:space="preserve"
   sodipodi:docname="Youtube-02.svg"
   inkscape:version="0.92.4 (5da689c313, 2019-01-14)"
   width="55"
   height="55"><metadata
   id="metadata32"><rdf:RDF><cc:Work
       rdf:about=""><dc:format>image/svg+xml</dc:format><dc:type
         rdf:resource="http://purl.org/dc/dcmitype/StillImage" /><dc:title></dc:title></cc:Work></rdf:RDF></metadata><defs
   id="defs30" /><sodipodi:namedview
   pagecolor="#ffffff"
   bordercolor="#666666"
   borderopacity="1"
   objecttolerance="10"
   gridtolerance="10"
   guidetolerance="10"
   inkscape:pageopacity="0"
   inkscape:pageshadow="2"
   inkscape:window-width="3840"
   inkscape:window-height="2066"
   id="namedview28"
   showgrid="false"
   inkscape:zoom="19.197917"
   inkscape:cx="18.097938"
   inkscape:cy="27.5"
   inkscape:window-x="2293"
   inkscape:window-y="-11"
   inkscape:window-maximized="1"
   inkscape:current-layer="XMLID_1_"
   fit-margin-top="0"
   fit-margin-left="0"
   fit-margin-right="0"
   fit-margin-bottom="0" />
<style
   type="text/css"
   id="style22">
	.st0{fill:#CA4638;}
	.st1{fill:#FFFFFF;}
</style>
<g
   id="XMLID_1_"
   transform="translate(-20.5,-20.5)">
	<circle
   id="XMLID_3_"
   class="st0"
   cx="48"
   cy="48"
   r="27.5"
   style="fill:#ff0000;fill-opacity:1" />
	<path
   id="XMLID_6_"
   class="st1"
   d="m 65.6,40.7 c 0,0 -0.3,-2.4 -1.4,-3.5 -1.3,-1.4 -2.8,-1.4 -3.5,-1.5 -4.9,-0.4 -12.3,-0.4 -12.3,-0.4 v 0 c 0,0 -7.4,0 -12.3,0.4 -0.7,0.1 -2.2,0.1 -3.5,1.5 -1.1,1.1 -1.4,3.5 -1.4,3.5 0,0 -0.4,2.8 -0.4,5.7 v 2.7 c 0,2.8 0.4,5.7 0.4,5.7 0,0 0.3,2.4 1.4,3.5 1.3,1.4 3.1,1.4 3.9,1.5 2.8,0.3 12,0.4 12,0.4 0,0 7.4,0 12.3,-0.4 0.7,-0.1 2.2,-0.1 3.5,-1.5 1.1,-1.1 1.4,-3.5 1.4,-3.5 0,0 0.4,-2.8 0.4,-5.7 V 46.4 C 66,43.6 65.6,40.7 65.6,40.7 Z M 44.8,52.3 v -9.9 l 9.5,5 z"
   inkscape:connector-curvature="0"
   style="fill:#ffffff" />
</g>
</svg>